<svg xmlns="http://www.w3.org/2000/svg" width="800" height="400">
  <rect width="100%" height="100%" fill="white"/>
  <polyline points="418.0,100.0 500.0,142.8571428571429 592.0,121.42857142857144 1182.0,185.71428571428572 1324.0,164.28571428571428 1546.0,142.8571428571429 1975.0,142.8571428571429 2081.0,121.42857142857144 2241.0,100.0 2538.0,100.0 2903.0,118.75 3103.0,100.0 3342.0,100.0 3466.0,137.5 3764.0,137.5 4150.0,118.75 4386.0,100.0 4454.0,118.75 4668.0,137.5 4821.0,118.75 5241.0,137.5 5241.0,118.75" style="fill:none;stroke:black;stroke-width:2"/>
  <polyline points="418.0,100.0 500.0,142.8571428571429 592.0,121.42857142857144 1182.0,185.71428571428572 1324.0,164.28571428571428 1546.0,142.8571428571429 1975.0,142.8571428571429 2081.0,121.42857142857144 2241.0,100.0 2538.0,100.0 2903.0,118.75 3103.0,100.0 3342.0,100.0 3466.0,137.5 3764.0,137.5 4150.0,118.75 4386.0,100.0 4454.0,118.75 4668.0,137.5 4821.0,118.75 5241.0,137.5 5241.0,118.75 800,400 0,400" style="fill:lightgray;stroke:none"/>
</svg>
